<svg width="186" height="144" viewBox="0 0 186 144" fill="none" xmlns="http://www.w3.org/2000/svg">
<path d="M62 0H124V60H62V0Z" fill="#E5322D"/>
<path d="M0 60H62V120H0V60Z" fill="#422774"/>
<path d="M124 60H186V120H124V60Z" fill="#FEEF0D"/>
<path d="M130.254 95.622L66 141.48L67.4603 144L134.148 102.677L158 88.063L157.513 86.0472L156.54 85.5433L156.053 84.0315L154.593 83.0236L154.106 81.5118L152.646 80.5039L152.159 80L130.254 95.622Z" fill="#1A1A1A"/>
<path d="M146.804 93.6064L142.91 88.0631V87.5591L151.672 81.0079H152.159L153.619 82.0158L154.106 83.5276L155.079 84.5355L155.566 86.0473L157.027 86.5512L157.513 88.0631L147.291 93.6064H146.804Z" fill="#767676" stroke="black"/>
<path d="M134.148 94.1102C134.635 93.1023 141.45 88.5669 141.936 88.5669C141.936 88.5669 146.804 93.6063 145.344 94.6141C143.884 95.622 139.014 100.157 137.067 99.1496C135.12 98.1417 133.759 94.9165 134.148 94.1102Z" fill="#767676" stroke="black"/>
</svg>
